<svg width="101" height="101" viewBox="0 0 101 101" fill="none" xmlns="http://www.w3.org/2000/svg">
<path d="M94.73 52.43L88.47 43.36C87.5389 42.0149 86.2955 40.9156 84.8465 40.1562C83.3975 39.3969 81.7859 39.0001 80.15 39H64V26.5C64 26.1022 63.842 25.7206 63.5607 25.4393C63.2794 25.158 62.8978 25 62.5 25H8.5C8.10218 25 7.72064 25.158 7.43934 25.4393C7.15804 25.7206 7 26.1022 7 26.5V73.5C7 73.8978 7.15804 74.2794 7.43934 74.5607C7.72064 74.842 8.10218 75 8.5 75H20.89C21.131 76.8332 22.0303 78.5162 23.4202 79.7354C24.8102 80.9546 26.5961 81.6268 28.445 81.6268C30.2939 81.6268 32.0798 80.9546 33.4698 79.7354C34.8597 78.5162 35.759 76.8332 36 75H69.48C69.7519 76.8064 70.6629 78.4554 72.0475 79.6471C73.432 80.8389 75.1982 81.4943 77.025 81.4943C78.8518 81.4943 80.618 80.8389 82.0025 79.6471C83.3871 78.4554 84.2981 76.8064 84.57 75H93.5C93.8978 75 94.2794 74.842 94.5607 74.5607C94.842 74.2794 95 73.8978 95 73.5V53.28C95.0009 52.9754 94.9065 52.6782 94.73 52.43V52.43ZM80.15 42C81.3009 41.9993 82.4347 42.2783 83.4538 42.8131C84.4729 43.3479 85.3467 44.1225 86 45.07L90.79 52H64V42H80.15ZM28.44 78.5C27.521 78.504 26.6216 78.2349 25.8557 77.7271C25.0898 77.2192 24.492 76.4953 24.138 75.6472C23.784 74.7992 23.6899 73.8651 23.8675 72.9634C24.045 72.0618 24.4864 71.2331 25.1355 70.5826C25.7846 69.9321 26.6123 69.489 27.5135 69.3094C28.4148 69.1299 29.3491 69.2221 30.1979 69.5742C31.0468 69.9263 31.7719 70.5226 32.2815 71.2874C32.791 72.0522 33.062 72.951 33.06 73.87C33.0574 75.0954 32.5701 76.27 31.7045 77.1375C30.839 78.0049 29.6654 78.4947 28.44 78.5ZM28.44 66.23C26.7341 66.2245 25.0753 66.7894 23.7272 67.8349C22.3792 68.8803 21.4192 70.3464 21 72H10V28H61V72H35.82C35.4049 70.3555 34.4543 68.8959 33.1181 67.8512C31.7819 66.8065 30.1361 66.2361 28.44 66.23V66.23ZM77 78.5C76.0819 78.5 75.1844 78.2276 74.4211 77.7173C73.6579 77.207 73.0631 76.4818 72.7122 75.6333C72.3614 74.7849 72.2701 73.8514 72.4499 72.9511C72.6297 72.0508 73.0727 71.224 73.7226 70.5755C74.3725 69.927 75.2002 69.4858 76.1009 69.3079C77.0017 69.13 77.9349 69.2233 78.7826 69.5761C79.6303 69.9288 80.3542 70.5251 80.8629 71.2894C81.3715 72.0538 81.642 72.9519 81.64 73.87C81.6374 75.0989 81.1473 76.2765 80.2774 77.1445C79.4076 78.0125 78.2289 78.5 77 78.5V78.5ZM84.4 72C83.9897 70.3491 83.0387 68.8829 81.6985 67.8351C80.3584 66.7873 78.7062 66.218 77.005 66.218C75.3038 66.218 73.6516 66.7873 72.3115 67.8351C70.9713 68.8829 70.0203 70.3491 69.61 72H64V55H92V72H84.4Z" fill="white"/>
</svg>
