<svg width="101" height="101" viewBox="0 0 101 101" fill="none" xmlns="http://www.w3.org/2000/svg">
<path d="M89.079 9.42H36.156C35.327 9.42 34.656 10.092 34.656 10.92V32.548H10.922C10.093 32.548 9.422 33.219 9.422 34.048V76.128C9.422 76.957 10.093 77.628 10.922 77.628H23.47L35.277 90.11C35.566 90.416 35.963 90.579 36.367 90.579C36.553 90.579 36.741 90.544 36.921 90.473C37.492 90.246 37.866 89.694 37.867 89.08L37.873 77.628H66.424C67.253 77.628 67.924 76.957 67.924 76.128V54.505H89.079C89.908 54.505 90.579 53.833 90.579 53.005V10.92C90.579 10.092 89.908 9.42 89.079 9.42ZM64.924 74.628H36.374C35.546 74.628 34.874 75.299 34.874 76.128L34.869 85.314L25.206 75.098C24.922 74.799 24.528 74.629 24.116 74.629H12.422V35.549H34.656V53.006C34.656 53.834 35.327 54.506 36.156 54.506H46.781V65.027C46.781 65.631 47.143 66.176 47.7 66.41C47.888 66.489 48.085 66.527 48.28 66.527C48.666 66.527 49.045 66.378 49.331 66.097L61.143 54.506H64.924V74.628ZM87.579 51.505H60.531C60.138 51.505 59.761 51.659 59.48 51.934L49.78 61.452V53.005C49.78 52.176 49.109 51.505 48.28 51.505H37.655V12.42H87.578V51.504H87.579V51.505Z" fill="white"/>
</svg>
