<svg width="101" height="101" viewBox="0 0 101 101" fill="none" xmlns="http://www.w3.org/2000/svg">
<path d="M67 50.5C67 50.1022 66.842 49.7206 66.5607 49.4393C66.2794 49.158 65.8978 49 65.5 49H52V28.5C52 28.1022 51.842 27.7206 51.5607 27.4393C51.2794 27.158 50.8978 27 50.5 27C50.1022 27 49.7206 27.158 49.4393 27.4393C49.158 27.7206 49 28.1022 49 28.5V50.5C49 50.8978 49.158 51.2794 49.4393 51.5607C49.7206 51.842 50.1022 52 50.5 52H65.5C65.8978 52 66.2794 51.842 66.5607 51.5607C66.842 51.2794 67 50.8978 67 50.5Z" fill="white"/>
<path d="M15.27 44.31C15.4951 44.3091 15.7172 44.2578 15.92 44.16L28.54 38C28.8677 37.8097 29.1112 37.5025 29.2216 37.14C29.332 36.7776 29.3012 36.3868 29.1353 36.0461C28.9694 35.7055 28.6807 35.4402 28.3273 35.3037C27.9739 35.1671 27.5818 35.1694 27.23 35.31L17.64 40C19.8783 33.0149 24.2841 26.9246 30.218 22.6129C36.1519 18.3012 43.3053 15.9924 50.6402 16.0214C57.9752 16.0503 65.1101 18.4156 71.0098 22.7741C76.9094 27.1326 81.2669 33.2574 83.45 40.26V40.26C83.8307 41.488 84.1412 42.7367 84.38 44C84.4489 44.3398 84.6326 44.6455 84.9003 44.8659C85.168 45.0862 85.5033 45.2077 85.85 45.21H86.14C86.5289 45.1302 86.8712 44.9013 87.0935 44.5724C87.3159 44.2435 87.4008 43.8407 87.33 43.45C87.0738 42.0986 86.7399 40.763 86.33 39.45V39.45C83.9936 31.776 79.2466 25.059 72.7928 20.2947C66.339 15.5304 58.5218 12.9725 50.5 13C42.6319 13.0284 34.9699 15.5177 28.5876 20.1193C22.2054 24.7208 17.4227 31.2039 14.91 38.66L10.46 29.54C10.3835 29.3485 10.2683 29.1749 10.1217 29.03C9.97501 28.885 9.80006 28.7718 9.60772 28.6975C9.41538 28.6232 9.20979 28.5894 9.00378 28.5981C8.79777 28.6068 8.59577 28.6579 8.41039 28.7481C8.22501 28.8384 8.06024 28.9659 7.92635 29.1228C7.79247 29.2796 7.69235 29.4623 7.63226 29.6595C7.57216 29.8568 7.55338 30.0643 7.57708 30.2691C7.60078 30.474 7.66645 30.6717 7.77 30.85L13.92 43.47C14.0437 43.7225 14.2359 43.9351 14.4745 44.0836C14.7132 44.2321 14.9889 44.3106 15.27 44.31V44.31Z" fill="white"/>
<path d="M93.39 71L87.23 58.34C87.0555 57.984 86.7471 57.7116 86.3724 57.5823C85.9976 57.453 85.5869 57.4774 85.23 57.65L72.61 63.8C72.4327 63.8867 72.2742 64.0074 72.1436 64.1553C72.013 64.3033 71.9128 64.4754 71.8487 64.6621C71.7847 64.8487 71.758 65.0462 71.7702 65.2431C71.7824 65.4401 71.8333 65.6327 71.92 65.81C72.0067 65.9873 72.1274 66.1458 72.2753 66.2764C72.4233 66.407 72.5955 66.5072 72.7821 66.5713C72.9688 66.6354 73.1662 66.662 73.3631 66.6498C73.5601 66.6376 73.7527 66.5867 73.93 66.5L83 62.07C80.4655 69.2098 75.6512 75.3169 69.3004 79.4482C62.9496 83.5796 55.4154 85.5055 47.8611 84.9287C40.3067 84.3519 33.1523 81.3044 27.5023 76.2567C21.8524 71.209 18.0211 64.4419 16.6 57C16.5632 56.803 16.488 56.6152 16.3787 56.4473C16.2693 56.2794 16.128 56.1346 15.9627 56.0214C15.7974 55.9081 15.6114 55.8284 15.4153 55.787C15.2193 55.7456 15.017 55.7432 14.82 55.78C14.623 55.8168 14.4352 55.892 14.2673 56.0013C14.0994 56.1107 13.9546 56.252 13.8414 56.4173C13.7281 56.5826 13.6484 56.7686 13.607 56.9647C13.5656 57.1607 13.5632 57.363 13.6 57.56C15.1324 65.7127 19.3242 73.1274 25.5194 78.6441C31.7147 84.1607 39.5639 87.4681 47.839 88.0487C56.1141 88.6294 64.3482 86.4505 71.2531 81.853C78.158 77.2555 83.3441 70.4988 86 62.64L90.7 72.27C90.8213 72.5251 91.0127 72.7404 91.2517 72.8909C91.4907 73.0414 91.7676 73.1208 92.05 73.12C92.2765 73.1204 92.4996 73.0655 92.7 72.96C93.0458 72.7856 93.3107 72.4842 93.4394 72.1188C93.568 71.7535 93.5503 71.3526 93.39 71V71Z" fill="white"/>
<path d="M49 72.5V79.5C49 79.8978 49.158 80.2794 49.4393 80.5607C49.7206 80.842 50.1022 81 50.5 81C50.8978 81 51.2794 80.842 51.5607 80.5607C51.842 80.2794 52 79.8978 52 79.5V72.5C52 72.1022 51.842 71.7206 51.5607 71.4393C51.2794 71.158 50.8978 71 50.5 71C50.1022 71 49.7206 71.158 49.4393 71.4393C49.158 71.7206 49 72.1022 49 72.5Z" fill="white"/>
<path d="M33.91 64.46L28.96 69.46C28.71 69.7486 28.5786 70.1211 28.5923 70.5027C28.6059 70.8842 28.7636 71.2464 29.0336 71.5164C29.3035 71.7864 29.6658 71.944 30.0473 71.9577C30.4289 71.9714 30.8014 71.84 31.09 71.59L36.04 66.59C36.29 66.3014 36.4214 65.9289 36.4077 65.5473C36.394 65.1658 36.2364 64.8036 35.9664 64.5336C35.6964 64.2636 35.3342 64.1059 34.9527 64.0923C34.5711 64.0786 34.1986 64.21 33.91 64.46V64.46Z" fill="white"/>
</svg>
