<svg width="401" height="60" viewBox="0 0 401 60" fill="none" xmlns="http://www.w3.org/2000/svg">
<path d="M104.298 3.69509C103.634 2.28444 101.866 1.13243 100.369 1.13243H97.328C95.8342 1.13243 94.0864 2.29767 93.4403 3.7189L69.3271 56.8772C68.6569 58.2831 69.3852 59.2902 70.8819 59.2902H76.4544C78.6543 59.2902 79.6624 58.2344 80.2579 56.9412C80.8548 55.648 82.1837 52.8357 82.4383 52.2623C82.7816 51.4864 83.8418 51.0109 85.3355 51.0125L111.28 51.0267C112.776 51.0299 113.736 51.3298 114.179 52.2623C114.468 52.8695 115.794 55.3989 116.445 56.7788C117.103 58.1588 118.207 59.2902 120.35 59.2902H128.435C129.93 59.2902 130.585 58.0927 130.047 56.9803C129.506 55.8659 104.298 3.69509 104.298 3.69509H104.298ZM89.0643 42.8024C87.5706 42.8024 86.8668 41.6282 87.4954 40.2017L96.9971 18.7214C97.6297 17.2907 98.6523 17.3007 99.2688 18.7309L108.52 40.2107C109.136 41.6436 108.42 42.8172 106.927 42.8172L89.0643 42.8024V42.8024ZM290.624 4.10607V56.8428C290.624 58.2947 291.847 59.2902 293.343 59.2902H299.933C301.426 59.2902 302.65 58.2831 302.65 56.7053V3.99976C302.65 2.42038 301.684 1.13402 300.19 1.13402H293.343C291.847 1.13244 290.624 2.10302 290.624 4.10607V4.10607ZM180.202 37.1387C179.343 35.8476 179.815 34.4221 181.244 33.9715C181.244 33.9715 186.938 32.1731 189.663 29.5946C192.39 27.0081 193.761 23.2749 193.761 18.4088C193.761 15.2268 193.233 12.552 192.184 10.3755C191.134 8.20473 189.629 6.42806 187.671 5.06872C185.713 3.70197 183.369 2.69912 180.638 2.07128C177.906 1.44609 174.217 1.26361 174.217 1.26361C172.408 1.18414 170.598 1.14059 168.787 1.13297H141.423C139.93 1.13297 138.707 2.41932 138.707 3.9987V56.7058C138.707 58.2847 139.929 59.2907 141.423 59.2907H147.899C149.393 59.2907 150.615 58.2836 150.615 56.7058C150.615 56.7058 150.62 35.7418 150.632 35.7418C150.643 35.7418 150.65 35.7307 150.65 35.7159C150.65 35.6984 162.926 35.6836 162.926 35.6836C164.418 35.6836 166.346 36.7372 167.21 38.0278L179.954 56.9618C181.138 58.6385 182.264 59.2902 183.758 59.2902H192.223C193.718 59.2902 193.952 57.8028 193.435 57.0306C192.923 56.2626 180.202 37.1387 180.202 37.1387V37.1387ZM175.049 26.4337C173.372 26.841 171.485 26.9224 171.485 26.9224C169.675 26.9987 167.865 27.0403 166.055 27.0473H153.37C151.875 27.0473 150.653 25.7561 150.653 24.1799V13.5009C150.653 11.9236 151.875 10.6341 153.369 10.6341H166.054C167.549 10.6341 169.991 10.6907 171.484 10.7568C171.484 10.7568 173.372 10.8351 175.048 11.244C176.725 11.6523 178.056 12.2219 179.029 12.9571C180.006 13.6976 180.704 14.5656 181.126 15.5642C181.542 16.5629 181.754 17.6493 181.754 18.8367C181.754 20.0178 181.542 21.1116 181.126 22.1081C180.704 23.1067 180.007 23.9742 179.029 24.7147C178.056 25.4552 176.726 26.0322 175.049 26.4337V26.4337ZM371.527 1.13243C370.034 1.13243 368.825 2.17125 368.825 3.69086L368.842 37.4047C368.842 38.9852 367.996 39.3438 366.959 38.2082L334.967 3.19314C333.929 2.05753 332.409 1.13243 330.361 1.13243H324.345C322.453 1.13243 321.625 2.1977 321.625 3.27671V57.1887C321.625 58.2646 322.596 59.2907 324.093 59.2907H330.119C331.609 59.2907 332.655 58.4333 332.655 56.9809C332.655 56.2525 332.686 21.4644 332.686 21.4644C332.686 19.8882 333.531 19.5286 334.565 20.6668L367.923 57.2596C368.983 58.3788 370.27 59.2912 372.56 59.2912H377.086C378.583 59.2912 379.805 58.0017 379.805 56.4239V4.00081C379.805 2.42143 378.583 1.13508 377.086 1.13508H371.527V1.13243V1.13243ZM241.095 34.0064C240.37 35.3837 239.175 35.3795 238.46 33.999L222.822 3.69509C222.158 2.28867 220.794 1.13243 218.894 1.13243H210.413C208.918 1.13243 207.693 2.41879 207.693 3.99817V56.6381C207.693 58.2127 208.675 59.2902 210.413 59.2902H215.685C217.181 59.2902 218.259 58.2947 218.259 56.7741C218.259 56.0452 218.281 18.4881 218.338 18.4881C218.396 18.4881 237.856 56.7635 237.856 56.7635C238.561 58.1525 240.29 58.1588 241.009 56.7751C241.009 56.7751 260.629 18.5971 260.687 18.5971C260.748 18.5971 260.726 55.6771 260.726 56.7735C260.726 58.2958 261.878 59.2896 263.374 59.2896H269.447C270.943 59.2896 272.162 58.5037 272.162 56.4223V3.99923C272.161 3.23957 271.875 2.51139 271.366 1.97424C270.857 1.43708 270.167 1.13475 269.447 1.1335H261.316C259.241 1.1335 257.993 2.25006 257.251 3.62104L241.094 34.0064H241.095ZM0 30.16C0 58.5597 27.5287 60 33.048 60C51.3161 60 59.0359 54.7911 59.3562 54.5663C60.4985 53.884 61.89 52.5083 61.89 49.9308V30.3282C61.8888 29.4594 61.5611 28.6265 60.9788 28.0122C60.3965 27.398 59.6071 27.0525 58.7837 27.0515H35.8335C34.1177 27.0515 32.9914 28.5224 32.9914 30.3282V32.3582C32.9914 34.1672 34.1177 35.6423 35.8335 35.6423H49.1076C49.7235 35.6425 50.3141 35.9006 50.7497 36.36C51.1854 36.8194 51.4304 37.4424 51.4309 38.0923C51.4309 38.0923 51.4184 46.6848 51.4184 47.229C48.7958 48.3588 36.851 52.0412 27.254 49.6261C13.3318 46.1119 12.2466 33.9921 12.2466 30.3615C12.2466 27.3144 13.1127 12.05 30.2109 10.5061C44.0505 9.25624 53.1652 15.1522 53.2554 15.2104C54.882 16.1 56.5657 15.4659 57.473 13.6485C57.477 13.6342 59.1998 9.95654 59.1998 9.95654C59.9166 8.44328 59.675 6.87395 57.9251 5.62145C57.8083 5.5511 48.1061 0 33.0515 0C0.925811 0.00158678 0 27.0732 0 30.16ZM388.437 52.0502H386.072V51.15H391.828V52.0502H389.452V59.3515H388.437V52.0502H388.437ZM399.821 55.7501C399.762 54.6055 399.693 53.2181 399.693 52.2084H399.67C399.369 53.2558 399.042 54.2948 398.69 55.3243L397.317 59.3023H396.556L395.287 55.3978C394.918 54.2299 394.62 53.1821 394.4 52.2089H394.375C394.343 53.4184 394.293 54.6273 394.226 55.8352L394.019 59.3505H393.062L393.604 51.1489H394.885L396.212 55.1159C396.504 56.0265 396.766 56.9479 396.995 57.8785H397.019C397.225 57.0512 397.503 56.151 397.849 55.1159L399.234 51.1489H400.514L401 59.3505H400.007L399.821 55.7501H399.821Z" fill="#C4C4C4"/>
</svg>
