<svg width="101" height="101" viewBox="0 0 101 101" fill="none" xmlns="http://www.w3.org/2000/svg">
<path d="M88.5 15.3C88.2 15 87.8 14.8 87.4 14.8H72.2V7.8C72.2 7 71.5 6.3 70.7 6.3H28C27.2 6.3 26.5 7 26.5 7.8V14.8H10.9C10.5 14.8 10.1 15 9.80002 15.3C9.50002 15.6 9.40002 16 9.40002 16.4C9.40002 16.7 9.70002 23.1 12 30.5C15.2 40.4 20.6 47.4 27.8 50.6C30.2 58.6 35.7 64.9 42.6 67.4V67.7C42.6 76 36.3 82.6 28.2 82.6C27.4 82.6 26.7 83.3 26.7 84.1V92.6C26.7 93.4 27.4 94.1 28.2 94.1H70.7C71.5 94.1 72.2 93.4 72.2 92.6V84.1C72.2 83.3 71.5 82.6 70.7 82.6C62.5 82.6 55.8 75.9 55.8 67.7V67.5C63 65 68.6 58.6 71 50.4C77.9 47.1 83.2 40.2 86.3 30.5C88.7 23.1 88.9 16.6 88.9 16.4C89 16 88.8 15.6 88.5 15.3ZM12.5 17.8H26.5V41.8C26.5 43.5 26.6 45.1 26.9 46.7C15.5 39.9 13 23 12.5 17.8ZM69.2 85.5V91H29.7V85.5C38.5 84.8 45.3 77.5 45.5 68.2C46.7 68.4 48 68.6 49.3 68.6C50.5 68.6 51.7 68.5 52.8 68.3C53.2 77.4 60.3 84.8 69.2 85.5ZM53.3 65.2C52 65.5 50.7 65.7 49.4 65.7C47.9 65.7 46.4 65.5 45 65.1C44.7 65 44.2 64.8 44 64.8C35.7 62 29.5 52.8 29.5 41.9V9.4H69.2V15.4V17.3V41.9C69.2 52.8 63 62 54.6 64.8L53.3 65.2ZM71.9 46.5C72.1 45 72.3 43.4 72.3 41.8V17.8H85.9C85.4 23 83 39.4 71.9 46.5Z" fill="#FF3427"/>
<path d="M63.8 27.3L55.6 26.1L51.9 18.6C51.5 17.8 50.6 17.2 49.7 17.2C48.8 17.2 47.9 17.7 47.5 18.6L43.8 26.1L35.6 27.3C34.7 27.4 33.9 28.1 33.6 29C33.3 29.9 33.5 30.9 34.2 31.5L40.2 37.3L38.8 45.5C38.6 46.4 39 47.3 39.8 47.9C40.2 48.2 40.7 48.4 41.3 48.4C41.7 48.4 42.1 48.3 42.4 48.1L50 44.3L57.2 48.1C58 48.5 59 48.5 59.8 47.9C60.6 47.3 60.9 46.4 60.8 45.5L59.4 37.3L65.4 31.5C66.1 30.8 66.3 29.9 66 29C65.5 28.1 64.8 27.4 63.8 27.3ZM56.6 35.7C56.2 36 56.1 36.5 56.2 37L57.6 44.9L50.7 41.3C50.3 41.1 49.8 41.1 49.3 41.3L41.9 45L43.3 37C43.4 36.5 43.2 36 42.9 35.7L37.2 30.1L45.1 28.9C45.6 28.8 46 28.5 46.2 28.1L49.7 20.9L53.2 28.1C53.4 28.5 53.8 28.9 54.3 28.9L62.2 30.1L56.6 35.7Z" fill="#FF3427"/>
</svg>
