<svg width="101" height="101" viewBox="0 0 101 101" fill="none" xmlns="http://www.w3.org/2000/svg">
<path fill-rule="evenodd" clip-rule="evenodd" d="M78.081 54.903H91.627C92.455 54.903 93.127 55.574 93.127 56.402C93.127 57.23 92.455 57.902 91.627 57.902H75.687L50.353 89.655C50.069 90.011 49.637 90.219 49.181 90.219C48.725 90.219 48.295 90.012 48.01 89.657L20.659 55.5H7C6.17157 55.5 5.5 54.8284 5.5 54C5.5 53.1716 6.17157 52.5 7 52.5H18.2568L12.276 45.031C9.46702 41.238 8.00002 36.862 8.00002 32.331C8.00002 20.569 17.573 11 29.341 11C38.332 11 46.043 16.588 49.18 24.472C52.316 16.588 60.025 11 69.013 11C80.786 11 90.363 20.569 90.363 32.331C90.363 36.35 89.181 40.309 86.946 43.779C86.919 43.821 86.889 43.862 86.858 43.902L78.081 54.903ZM22.0992 52.5L14.652 43.2C12.263 39.973 11 36.214 11 32.331C11 22.224 19.228 14 29.341 14C39.454 14 47.681 22.223 47.681 32.331C47.681 33.16 48.352 33.831 49.181 33.831C50.01 33.831 50.681 33.16 50.681 32.331C50.681 22.224 58.905 14 69.013 14C79.131 14 87.363 22.223 87.363 32.331C87.363 35.748 86.361 39.122 84.465 42.091L74.243 54.903H63.593L58.585 37.231C58.397 36.568 57.818 36.122 57.09 36.141C56.401 36.165 55.816 36.656 55.674 37.331L49.299 67.676L43.271 37.347C43.136 36.666 42.551 36.167 41.857 36.14C41.152 36.131 40.542 36.567 40.355 37.236L36.0947 52.5029C36.0634 52.501 36.0318 52.5 36 52.5H22.0992ZM24.701 55.749L49.179 86.318L71.848 57.903H62.458C61.787 57.903 61.199 57.458 61.015 56.812L57.358 43.905L50.725 75.475C50.579 76.169 49.966 76.666 49.257 76.666H49.249C48.536 76.662 47.925 76.157 47.786 75.458L41.554 44.1L38.61 54.652C38.429 55.301 37.838 55.749 37.165 55.749H24.701Z" fill="#FF3427"/>
</svg>
