<svg width="101" height="101" viewBox="0 0 101 101" fill="none" xmlns="http://www.w3.org/2000/svg">
<path d="M8.58398 61.554H17.211C18.039 61.554 18.711 60.882 18.711 60.054C18.711 59.226 18.039 58.554 17.211 58.554H8.58398C7.75598 58.554 7.08398 59.226 7.08398 60.054C7.08398 60.882 7.75598 61.554 8.58398 61.554Z" fill="#FF3427"/>
<path d="M8.54303 73.639H27.892C28.72 73.639 29.392 72.967 29.392 72.139C29.392 71.311 28.72 70.639 27.892 70.639H8.54303C7.71503 70.639 7.04303 71.311 7.04303 72.139C7.04303 72.967 7.71503 73.639 8.54303 73.639Z" fill="#FF3427"/>
<path d="M41.372 82.723H8.58398C7.75598 82.723 7.08398 83.395 7.08398 84.223C7.08398 85.051 7.75598 85.723 8.58398 85.723H41.372C42.2 85.723 42.872 85.051 42.872 84.223C42.872 83.395 42.2 82.723 41.372 82.723Z" fill="#FF3427"/>
<path d="M76.947 58.554H71.387L59.139 28.941C58.908 28.38 58.361 28.014 57.753 28.014C40.757 28.014 36.003 12.218 35.81 11.548C35.664 11.036 35.259 10.641 34.745 10.507C34.229 10.374 33.684 10.522 33.307 10.899L14.251 29.955L8.43299 35.403C8.13599 35.681 7.96399 36.068 7.95799 36.475C7.95199 36.882 8.11199 37.275 8.39999 37.562L56.426 85.284C56.707 85.563 57.087 85.72 57.484 85.72H93.33C94.158 85.72 94.83 85.048 94.83 84.22V76.439C94.831 66.576 86.809 58.554 76.947 58.554ZM33.794 14.654C35.922 19.52 42.311 30.504 56.744 30.996L59.175 36.875H51.051C50.223 36.875 49.551 37.547 49.551 38.375C49.551 39.203 50.223 39.875 51.051 39.875H60.209C60.277 39.875 60.342 39.864 60.407 39.855L62.423 44.73H53.707C52.879 44.73 52.207 45.402 52.207 46.23C52.207 47.058 52.879 47.73 53.707 47.73H62.865C63.127 47.73 63.37 47.657 63.584 47.538L65.671 52.583H57.075C56.247 52.583 55.575 53.255 55.575 54.083C55.575 54.911 56.247 55.583 57.075 55.583H66.234C66.456 55.583 66.665 55.532 66.855 55.445L68.998 60.627C69.229 61.188 69.776 61.554 70.384 61.554H76.946C84.646 61.554 90.998 67.432 91.754 74.936L61.58 74.899L17.416 31.032L33.794 14.654ZM91.831 82.719H58.103L11.619 36.53L15.262 33.12L59.906 77.463C60.186 77.741 60.565 77.898 60.961 77.899L91.832 77.937L91.831 82.719Z" fill="#FF3427"/>
</svg>
