<svg width="1449" height="206" viewBox="0 0 1449 206" fill="none" xmlns="http://www.w3.org/2000/svg">
<path d="M376.921 13.2489C374.522 8.41973 368.132 4.47602 362.723 4.47602H351.737C346.34 4.47602 340.025 8.46501 337.691 13.3304L250.569 195.31C248.148 200.122 250.779 203.57 256.187 203.57H276.32C284.269 203.57 287.911 199.956 290.062 195.529C292.219 191.102 297.02 181.474 297.94 179.511C299.181 176.855 303.011 175.227 308.408 175.233L402.147 175.281C407.549 175.292 411.021 176.319 412.62 179.511C413.663 181.59 418.454 190.249 420.808 194.973C423.184 199.697 427.172 203.57 434.916 203.57H464.128C469.53 203.57 471.897 199.471 469.952 195.663C467.996 191.848 376.919 13.2489 376.919 13.2489H376.921ZM321.88 147.127C316.484 147.127 313.941 143.107 316.212 138.224L350.542 64.6891C352.827 59.7912 356.522 59.8256 358.749 64.7217L392.174 138.254C394.401 143.16 391.812 147.177 386.42 147.177L321.88 147.127V147.127ZM1050.12 14.6558V195.192C1050.12 200.162 1054.54 203.57 1059.94 203.57H1083.75C1089.15 203.57 1093.57 200.122 1093.57 194.721V14.2918C1093.57 8.88509 1090.08 4.48146 1084.68 4.48146H1059.94C1054.54 4.47603 1050.12 7.79866 1050.12 14.6558V14.6558ZM651.162 127.738C648.06 123.318 649.764 118.438 654.929 116.895C654.929 116.895 675.501 110.739 685.347 101.912C695.199 93.0574 700.15 80.2775 700.15 63.619C700.15 52.7258 698.245 43.5691 694.453 36.1181C690.661 28.6869 685.222 22.6048 678.148 17.9513C671.073 13.2724 662.604 9.83932 652.74 7.69002C642.866 5.54977 629.54 4.92507 629.54 4.92507C623.004 4.65302 616.463 4.50393 609.921 4.47784H511.054C505.66 4.47784 501.241 8.88147 501.241 14.2882V194.723C501.241 200.128 505.657 203.572 511.054 203.572H534.45C539.851 203.572 544.266 200.124 544.266 194.723C544.266 194.723 544.282 122.956 544.326 122.956C544.366 122.956 544.391 122.918 544.391 122.867C544.391 122.807 588.743 122.757 588.743 122.757C594.136 122.757 601.102 126.363 604.224 130.782L650.266 195.599C654.543 201.339 658.613 203.57 664.011 203.57H694.594C699.995 203.57 700.842 198.478 698.973 195.835C697.122 193.206 651.162 127.738 651.162 127.738V127.738ZM632.545 91.091C626.485 92.4852 619.666 92.7641 619.666 92.7641C613.13 93.0251 606.589 93.1676 600.048 93.1914H554.218C548.815 93.1914 544.4 88.7715 544.4 83.3756V46.8175C544.4 41.418 548.815 37.0035 554.216 37.0035H600.046C605.448 37.0035 614.271 37.1972 619.665 37.4236C619.665 37.4236 626.485 37.6916 632.543 39.0912C638.601 40.4891 643.409 42.4392 646.924 44.9561C650.456 47.4911 652.977 50.4624 654.502 53.881C656.005 57.2996 656.771 61.0188 656.771 65.0839C656.771 69.1272 656.005 72.8717 654.502 76.283C652.977 79.7017 650.458 82.6712 646.924 85.2062C643.409 87.7412 638.603 89.7167 632.545 91.091V91.091ZM1342.43 4.47602C1337.03 4.47602 1332.66 8.03225 1332.66 13.2344L1332.72 128.649C1332.72 134.059 1329.67 135.287 1325.92 131.399L1210.33 11.5305C1206.58 7.64294 1201.09 4.47602 1193.69 4.47602H1171.95C1165.12 4.47602 1162.13 8.12277 1162.13 11.8166V196.376C1162.13 200.059 1165.63 203.572 1171.04 203.572H1192.81C1198.2 203.572 1201.98 200.637 1201.98 195.664C1201.98 193.171 1202.09 74.0794 1202.09 74.0794C1202.09 68.6835 1205.14 67.4523 1208.88 71.3489L1329.4 196.619C1333.23 200.45 1337.88 203.574 1346.15 203.574H1362.51C1367.92 203.574 1372.33 199.159 1372.33 193.758V14.2955C1372.33 8.88871 1367.92 4.48508 1362.51 4.48508H1342.43V4.47602V4.47602ZM871.17 117.015C868.549 121.73 864.234 121.715 861.649 116.989L805.149 13.2489C802.749 8.43421 797.823 4.47602 790.957 4.47602H760.315C754.914 4.47602 750.488 8.87966 750.488 14.2864V194.491C750.488 199.882 754.036 203.57 760.315 203.57H779.363C784.769 203.57 788.665 200.162 788.665 194.957C788.665 192.461 788.744 63.8906 788.949 63.8906C789.159 63.8906 859.469 194.92 859.469 194.92C862.015 199.675 868.263 199.697 870.858 194.96C870.858 194.96 941.746 64.2636 941.956 64.2636C942.177 64.2636 942.097 191.201 942.097 194.955C942.097 200.166 946.261 203.568 951.667 203.568H973.605C979.011 203.568 983.418 200.877 983.418 193.752V14.29C983.413 11.6895 982.378 9.19667 980.539 7.3578C978.7 5.51893 976.206 4.48396 973.605 4.47965H944.23C936.733 4.47965 932.223 8.30203 929.543 12.9954L871.168 117.015H871.17ZM0.0891113 103.847C0.0891113 201.069 99.551 206 119.492 206C185.495 206 213.387 188.168 214.544 187.399C218.672 185.063 223.699 180.353 223.699 171.53V104.423C223.695 101.449 222.511 98.5977 220.407 96.4948C218.303 94.392 215.451 93.2092 212.476 93.2059H129.556C123.357 93.2059 119.288 98.2414 119.288 104.423V111.373C119.288 117.565 123.357 122.615 129.556 122.615H177.516C179.741 122.616 181.875 123.499 183.449 125.072C185.023 126.645 185.908 128.778 185.91 131.002C185.91 131.002 185.865 160.417 185.865 162.281C176.389 166.148 133.233 178.754 98.5585 170.487C48.2571 158.456 44.3362 116.966 44.3362 104.537C44.3362 94.1058 47.4657 41.8507 109.242 36.5653C159.244 32.2866 192.176 52.4705 192.502 52.6697C198.379 55.7153 204.462 53.5442 207.74 47.3227C207.755 47.2738 213.979 34.684 213.979 34.684C216.569 29.5036 215.696 24.1312 209.374 19.8435C208.952 19.6026 173.897 0.599304 119.505 0.599304C3.43409 0.604736 0.0891113 93.2801 0.0891113 103.847ZM1403.52 178.785H1394.97V175.703H1415.77V178.785H1407.19V203.78H1403.52V178.785H1403.52ZM1444.65 191.451C1444.44 187.533 1444.19 182.783 1444.19 179.327H1444.1C1443.02 182.912 1441.84 186.469 1440.57 189.993L1435.6 203.612H1432.85L1428.27 190.245C1426.94 186.247 1425.86 182.66 1425.06 179.328H1424.98C1424.86 183.469 1424.68 187.607 1424.43 191.742L1423.69 203.776H1420.23L1422.19 175.7H1426.82L1431.61 189.28C1432.67 192.397 1433.61 195.552 1434.44 198.737H1434.53C1435.27 195.905 1436.27 192.823 1437.53 189.28L1442.53 175.7H1447.15L1448.91 203.776H1445.32L1444.65 191.451H1444.65Z" fill="white"/>
</svg>
